<?xml version="1.0" encoding="UTF-8" standalone="yes"?>
<svg version="1.2" width="180" height="180" baseProfile="tiny-ps" xmlns="http://www.w3.org/2000/svg">
  <title>bimi-svg-tiny-12-ps</title>
  <path d="M0 0 C2.20605467 1.3997983 4.303871 2.73832901 6.26171875 4.46875 C6.26171875 5.12875 6.26171875 5.78875 6.26171875 6.46875 C6.81859375 6.71625 7.37546875 6.96375 7.94921875 7.21875 C11.30215456 9.03114774 14.52729121 10.99989492 16.26171875 14.46875 C20.68108248 16.81653698 25.36050936 17.06298539 30.26171875 17.46875 C29.984375 19.359375 29.984375 19.359375 29.26171875 21.46875 C25.69921875 23.21875 25.69921875 23.21875 22.26171875 24.46875 C22.58785156 25.16484375 22.91398437 25.8609375 23.25 26.578125 C24.38041781 29.80789018 24.42899607 32.30516223 24.44921875 35.71875 C24.77493494 41.92038621 26.28631667 46.57868958 28.82421875 52.21875 C31.55838553 58.33628587 33.77483414 63.65291491 32.26171875 70.46875 C30.64899308 74.15498011 29.63139375 75.2223 26.26171875 77.46875 C25.64296875 77.241875 25.02421875 77.015 24.38671875 76.78125 C23.68546875 76.678125 22.98421875 76.575 22.26171875 76.46875 C20.55178441 78.0909954 18.88824191 79.76288425 17.26171875 81.46875 C12.9635491 83.90825169 9.08042813 83.63209608 4.26171875 83.46875 C4.26171875 84.12875 4.26171875 84.78875 4.26171875 85.46875 C5.45796875 85.55125 6.65421875 85.63375 7.88671875 85.71875 C13.0311285 86.36407348 16.51658247 88.55259814 20.015625 92.39453125 C22.75746243 94.92655851 25.5959577 96.21323142 28.94921875 97.84375 C37.17464814 102.16456763 41.02182093 108.4248317 45.26171875 116.46875 C45.6896875 117.18546875 46.11765625 117.9021875 46.55859375 118.640625 C47.48672306 121.0537612 47.24580981 122.09207725 46.26171875 124.46875 C42.87038833 129.13638757 38.83427214 132.97209152 34.26171875 136.46875 C33.93171875 137.12875 33.60171875 137.78875 33.26171875 138.46875 C32.27171875 138.46875 31.28171875 138.46875 30.26171875 138.46875 C30.26171875 139.12875 30.26171875 139.78875 30.26171875 140.46875 C15.18294532 151.92861781 -2.80390554 157.02046032 -21.45581055 156.85986328 C-23.66973699 156.84379387 -25.88183201 156.85978946 -28.09570312 156.87890625 C-41.02395204 156.89863317 -52.36680582 154.94969579 -63.73828125 148.46875 C-64.455 148.06914062 -65.17171875 147.66953125 -65.91015625 147.2578125 C-67.52903087 146.34476721 -69.13539231 145.40957612 -70.73828125 144.46875 C-60.31124491 122.90374303 -60.31124491 122.90374303 -53.73828125 114.46875 C-51.59098267 111.60257138 -51.59098267 111.60257138 -50.92578125 108.34375 C-51.90155855 104.89099954 -52.63029304 104.62593603 -55.61328125 102.84375 C-56.33257812 102.48023437 -57.051875 102.11671875 -57.79296875 101.7421875 C-60.09454688 100.23553194 -60.60617095 98.92493713 -61.73828125 96.46875 C-63.38649369 95.43861723 -65.05331827 94.43760372 -66.73828125 93.46875 C-70.00247568 88.57245836 -69.17704971 83.19817585 -68.73828125 77.46875 C-67.96954939 73.71396143 -66.96073454 70.09972733 -65.73828125 66.46875 C-66.58390625 66.4275 -67.42953125 66.38625 -68.30078125 66.34375 C-73.94469018 64.90711864 -77.55540694 61.24306146 -80.73828125 56.46875 C-82.9780218 46.2996054 -80.64339293 39.39051505 -75.2734375 30.765625 C-72.32359442 26.35211933 -72.32359442 26.35211933 -70.73828125 24.46875 C-70.07828125 24.46875 -69.41828125 24.46875 -68.73828125 24.46875 C-68.63515625 23.911875 -68.53203125 23.355 -68.42578125 22.78125 C-67.59649717 19.9918399 -66.39529069 17.8548436 -64.73828125 15.46875 C-64.07828125 15.46875 -63.41828125 15.46875 -62.73828125 15.46875 C-62.73828125 14.47875 -62.73828125 13.48875 -62.73828125 12.46875 C-57.08828314 5.68875227 -49.34810986 0.45845088 -40.859375 -1.91015625 C-38.44066329 -2.55818724 -38.44066329 -2.55818724 -35.17578125 -4.21875 C-23.8757402 -8.45908477 -10.17786708 -5.69147489 0 0 Z M24.26171875 69.46875 C25.26171875 73.46875 25.26171875 73.46875 25.26171875 73.46875 Z M23.26171875 73.46875 C24.26171875 75.46875 24.26171875 75.46875 24.26171875 75.46875 Z " fill="#BC9586" transform="translate(113.73828125,23.53125)"/>
  <path d="M0 0 C0.66 0 1.32 0 2 0 C-0.16090272 4.52812278 -2.83712551 8.74462844 -5.44140625 13.02734375 C-8.19956803 18.28789792 -8.87417611 24.13196726 -8 30 C-6.09946186 34.43174812 -3.76806722 36.6022509 0.5 38.8125 C2.2325 39.4003125 2.2325 39.4003125 4 40 C8.92857143 41.92857143 8.92857143 41.92857143 10 43 C12.33297433 43.04092937 14.66705225 43.04241723 17 43 C16.34 41.9275 15.68 40.855 15 39.75 C13.11704193 36.69019314 13 35.8664136 13 32 C13.61875 31.855625 14.2375 31.71125 14.875 31.5625 C17.03258322 31.06847775 17.03258322 31.06847775 19 30 C23.05142119 29.74139865 24.54337669 29.69558446 28 32 C29.29721449 35.89164348 29.13033993 38.89429226 29 43 C28.505 43.99 28.505 43.99 28 45 C25 44 25 44 23.3125 41.25 C22.06049331 38.14979295 21.71029875 36.28328088 22 33 C20.02 33.495 20.02 33.495 18 34 C18.27714844 34.68835938 18.55429687 35.37671875 18.83984375 36.0859375 C20.10251719 39.25750108 21.33583714 42.43933826 22.5625 45.625 C22.99691406 46.75164062 23.43132812 47.87828125 23.87890625 49.0390625 C24.62570355 51.01144005 25.33306826 52.99920479 26 55 C28.2865996 56.09246028 28.2865996 56.09246028 31 57 C32.79282903 57.8726159 34.58446398 58.74768865 36.375 59.625 C40.92343643 61.7238049 44.0416537 62.55092737 49 62 C48 65 48 65 45 67 C45 67.66 45 68.32 45 69 C51.51791392 69.3540919 56.17521449 69.03901852 62 66 C62 66.66 62 67.32 62 68 C63.35544922 67.94779297 63.35544922 67.94779297 64.73828125 67.89453125 C65.91777344 67.86746094 67.09726563 67.84039062 68.3125 67.8125 C69.48425781 67.77769531 70.65601562 67.74289063 71.86328125 67.70703125 C75 68 75 68 76.88671875 69.34375 C78.72081633 72.07237237 78.48765374 73.76929397 78 77 C77.23486762 78.29990232 76.41682367 79.56939716 75.5625 80.8125 C72.96768216 84.59539455 72.38863736 87.57485022 72.23828125 92.1171875 C72 94 72 94 70 96 C66.81180248 95.66083005 64.04218951 95.01406317 61 94 C61.26554687 94.49628906 61.53109375 94.99257812 61.8046875 95.50390625 C65.55719327 102.72131699 67.28560851 108.8601576 67 117 C66.13117188 117.18175781 65.26234375 117.36351562 64.3671875 117.55078125 C58.49121442 118.83245323 53.30175225 120.07008428 48 123 C47.01 123 46.02 123 45 123 C44.01 125.97 43.02 128.94 42 132 C29.15710449 132.62478951 18.19084274 130.37799779 7 124 C5.92492188 123.40058594 5.92492188 123.40058594 4.828125 122.7890625 C3.20925038 121.87601721 1.60288894 120.94082612 0 120 C10.42703634 98.43499303 10.42703634 98.43499303 17 90 C19.14729858 87.13382138 19.14729858 87.13382138 19.8125 83.875 C18.8367227 80.42224954 18.10798821 80.15718603 15.125 78.375 C14.40570313 78.01148437 13.68640625 77.64796875 12.9453125 77.2734375 C10.64373437 75.76678194 10.1321103 74.45618713 9 72 C7.35178756 70.96986723 5.68496298 69.96885372 4 69 C0.73580557 64.10370836 1.56123154 58.72942585 2 53 C2.76873186 49.24521143 3.77754671 45.63097733 5 42 C4.154375 41.95875 3.30875 41.9175 2.4375 41.875 C-3.20640893 40.43836864 -6.81712569 36.77431146 -10 32 C-12.23974055 21.8308554 -9.90511168 14.92176505 -4.53515625 6.296875 C-1.58531317 1.88336933 -1.58531317 1.88336933 0 0 Z " fill="#D77692" transform="translate(43,48)"/>
  <path d="M0 0 C3.06407957 1.70881361 5.39433064 3.33497774 7.75390625 5.92578125 C10.49574368 8.45780851 13.33423895 9.74448142 16.6875 11.375 C24.91292939 15.69581763 28.76010218 21.9560817 33 30 C33.42796875 30.71671875 33.8559375 31.4334375 34.296875 32.171875 C35.22500431 34.5850112 34.98409106 35.62332725 34 38 C30.60866958 42.66763757 26.57255339 46.50334152 22 50 C21.505 50.99 21.505 50.99 21 52 C20.01 52 19.02 52 18 52 C18 52.66 18 53.32 18 54 C0.14607796 67.56898075 -19.24097191 70.52268128 -41 70 C-40.34 66.37 -39.68 62.74 -39 59 C-38.67 59.66 -38.34 60.32 -38 61 C-37.33355469 60.65066406 -36.66710937 60.30132812 -35.98046875 59.94140625 C-29.23892015 56.61306128 -23.5106569 55.15980121 -16 55 C-16.88128501 48.14684943 -18.02641573 42.06345191 -21.09765625 35.83984375 C-22 34 -22 34 -23 31 C-21.6696875 31.5259375 -21.6696875 31.5259375 -20.3125 32.0625 C-16.93796874 33.01755602 -15.30313848 32.97151132 -12 32 C-11.97873047 31.1646875 -11.97873047 31.1646875 -11.95703125 30.3125 C-11.60603069 24.69649103 -10.25888465 21.44982285 -7.0859375 16.85546875 C-5.50226461 14.14955284 -5.49230843 12.04614944 -6 9 C-8.58926331 6.41073669 -10.02705279 6.62601957 -13.625 6.375 C-14.62789062 6.30023438 -15.63078125 6.22546875 -16.6640625 6.1484375 C-17.43492188 6.09945312 -18.20578125 6.05046875 -19 6 C-13.73253192 0.35975726 -7.56290615 -2.46343623 0 0 Z " fill="#DBB5AC" transform="translate(126,110)"/>
  <path d="M0 0 C2.67580505 2.00685378 4.89042981 3.8598114 6.95703125 6.50390625 C9.94078622 10.14945008 13.70614073 12.30449077 17.63671875 14.83984375 C20.53473887 17.48877785 20.76482585 19.15517606 21 23 C19.86820313 23.04898438 18.73640625 23.09796875 17.5703125 23.1484375 C16.08851661 23.22346514 14.606747 23.29901297 13.125 23.375 C12.37863281 23.4059375 11.63226563 23.436875 10.86328125 23.46875 C6.46526812 23.55643831 6.46526812 23.55643831 3 26 C3.99 26 4.98 26 6 26 C6.99 26 7.98 26 9 26 C9.19916016 26.93972656 9.19916016 26.93972656 9.40234375 27.8984375 C9.57894531 28.71570313 9.75554687 29.53296875 9.9375 30.375 C10.11152344 31.18710938 10.28554687 31.99921875 10.46484375 32.8359375 C10.92330693 35.029463 10.92330693 35.029463 12 37 C14.02463255 37.65213292 14.02463255 37.65213292 16 38 C17.80317221 34.03302114 18.49202991 30.3177458 19 26 C19.99 26 20.98 26 22 26 C22.99335621 54.6239413 22.99335621 54.6239413 15.859375 62.3046875 C15.24578125 62.86414063 14.6321875 63.42359375 14 64 C16.31 63.34 18.62 62.68 21 62 C18.9401693 66.82000384 15.79390018 69.03670864 11 71 C7.6167706 71.38926361 4.38669496 71.31229769 1 71 C1 67 1 67 3 64.75 C3.66 64.1725 4.32 63.595 5 63 C4.01386719 63.23589844 3.02773437 63.47179687 2.01171875 63.71484375 C-2.74106253 64.38355876 -6.02866797 62.70634863 -10.1875 60.5625 C-10.88552734 60.24345703 -11.58355469 59.92441406 -12.30273438 59.59570312 C-17.77505202 56.85173414 -19.84881853 53.64072967 -22 48 C-22.32226562 47.22269531 -22.64453125 46.44539063 -22.9765625 45.64453125 C-23.29753906 44.73767578 -23.29753906 44.73767578 -23.625 43.8125 C-23.86089844 43.15894531 -24.09679688 42.50539062 -24.33984375 41.83203125 C-24.66662109 40.92517578 -24.66662109 40.92517578 -25 40 C-25.66066719 38.33094605 -26.32438252 36.6630584 -27 35 C-24.525 34.505 -24.525 34.505 -22 34 C-21.81824219 34.61488281 -21.63648437 35.22976562 -21.44921875 35.86328125 C-21.19785156 36.67152344 -20.94648437 37.47976562 -20.6875 38.3125 C-20.44386719 39.11300781 -20.20023437 39.91351563 -19.94921875 40.73828125 C-18.95817977 43.09964573 -17.91925057 44.33879993 -16 46 C-15.972807 44.41676312 -15.95351694 42.83338938 -15.9375 41.25 C-15.92589844 40.36828125 -15.91429688 39.4865625 -15.90234375 38.578125 C-15.99173802 36.2181162 -16.33087179 34.25501476 -17 32 C-16.39671875 31.91363281 -15.7934375 31.82726562 -15.171875 31.73828125 C-11.27897231 31.05388384 -8.65456811 30.56844072 -5.625 27.9375 C-0.65783554 18.95839502 -0.35759229 10.04957633 0 0 Z " fill="#FCEBE8" transform="translate(87,47)"/>
  <path d="M0 0 C0.66 0 1.32 0 2 0 C-0.16090272 4.52812278 -2.83712551 8.74462844 -5.44140625 13.02734375 C-8.19956803 18.28789792 -8.87417611 24.13196726 -8 30 C-6.09946186 34.43174812 -3.76806722 36.6022509 0.5 38.8125 C2.2325 39.4003125 2.2325 39.4003125 4 40 C8.92857143 41.92857143 8.92857143 41.92857143 10 43 C12.33297433 43.04092937 14.66705225 43.04241723 17 43 C16.34 41.9275 15.68 40.855 15 39.75 C13.11704193 36.69019314 13 35.8664136 13 32 C13.61875 31.855625 14.2375 31.71125 14.875 31.5625 C17.03258322 31.06847775 17.03258322 31.06847775 19 30 C23.05142119 29.74139865 24.54337669 29.69558446 28 32 C29.29721449 35.89164348 29.13033993 38.89429226 29 43 C28.505 43.99 28.505 43.99 28 45 C25 44 25 44 23.3125 41.25 C22.06049331 38.14979295 21.71029875 36.28328088 22 33 C20.02 33.495 20.02 33.495 18 34 C18.27714844 34.68835938 18.55429687 35.37671875 18.83984375 36.0859375 C20.10251719 39.25750108 21.33583714 42.43933826 22.5625 45.625 C22.99691406 46.75164062 23.43132812 47.87828125 23.87890625 49.0390625 C24.62570355 51.01144005 25.33306826 52.99920479 26 55 C28.2865996 56.09246028 28.2865996 56.09246028 31 57 C32.79282903 57.8726159 34.58446398 58.74768865 36.375 59.625 C40.92343643 61.7238049 44.0416537 62.55092737 49 62 C47.81746738 65.54759787 47.32004159 66.3399792 44 68 C41.90002641 67.83333543 39.79869551 67.64843411 37.71484375 67.33984375 C34.50741345 66.93833809 31.35678373 66.81124897 28.125 66.75 C27.03445312 66.72421875 25.94390625 66.6984375 24.8203125 66.671875 C22.03194697 66.78855465 22.03194697 66.78855465 20.12890625 68.19140625 C18.60441037 70.6337647 18.70122827 72.33152556 18.8125 75.1875 C18.83957031 76.08855469 18.86664063 76.98960938 18.89453125 77.91796875 C18.94673828 78.94857422 18.94673828 78.94857422 19 80 C13.67285087 78.09026729 11.772401 77.04072908 9 72 C7.35857037 70.9590934 5.69287785 69.95495674 4 69 C0.73580557 64.10370836 1.56123154 58.72942585 2 53 C2.76873186 49.24521143 3.77754671 45.63097733 5 42 C4.154375 41.95875 3.30875 41.9175 2.4375 41.875 C-3.20640893 40.43836864 -6.81712569 36.77431146 -10 32 C-12.23974055 21.8308554 -9.90511168 14.92176505 -4.53515625 6.296875 C-1.58531317 1.88336933 -1.58531317 1.88336933 0 0 Z " fill="#66514A" transform="translate(43,48)"/>
  <path d="M0 0 C0.99 0 1.98 0 3 0 C3 2.31 3 4.62 3 7 C4.98 7 6.96 7 9 7 C7.44754581 10.29799969 5.56418705 13.26907474 3.5625 16.3125 C0.89987658 20.45066057 -1.26351221 24.40341468 -3 29 C-0.69 29 1.62 29 4 29 C5.12758089 32.38274266 4.81750262 33.76778223 4.0625 37.1875 C3.86785156 38.08855469 3.67320313 38.98960937 3.47265625 39.91796875 C3.31667969 40.60503906 3.16070312 41.29210937 3 42 C-0.97631219 42.25471039 -3.36931209 41.60924662 -6.875 39.75 C-7.73609375 39.29753906 -8.5971875 38.84507812 -9.484375 38.37890625 C-12.68210848 36.62611134 -15.85500706 34.84597412 -19 33 C-7.2513089 8.70157068 -7.2513089 8.70157068 0 0 Z " fill="#BF9C96" transform="translate(62,135)"/>
  <path d="M0 0 C0.33 0 0.66 0 1 0 C1.02749766 1.37488287 1.0466164 2.74993391 1.0625 4.125 C1.07410156 4.89070312 1.08570312 5.65640625 1.09765625 6.4453125 C1 9 1 9 0.5234375 11.6484375 C-0.33763898 17.16189735 -0.3582604 22.72854663 -0.51757812 28.30078125 C-0.70422161 33.22394336 -1.09767076 37.37895732 -3 42 C-10.43378943 42.33452052 -16.19877155 42.13902852 -23 39 C-22.85904936 37.3745692 -22.71207913 35.74965949 -22.5625 34.125 C-22.48128906 33.22007812 -22.40007812 32.31515625 -22.31640625 31.3828125 C-22 29 -22 29 -21 27 C-13.90178571 28.74107143 -13.90178571 28.74107143 -11 32 C-10.7733667 31.24380371 -10.5467334 30.48760742 -10.31323242 29.70849609 C-9.27693731 26.26227991 -8.23230424 22.81864551 -7.1875 19.375 C-6.83107422 18.18519531 -6.47464844 16.99539062 -6.10742188 15.76953125 C-5.58051758 14.03896484 -5.58051758 14.03896484 -5.04296875 12.2734375 C-4.72352295 11.21560059 -4.40407715 10.15776367 -4.07495117 9.06787109 C-2.95973139 5.88507486 -1.56910253 2.98188102 0 0 Z " fill="#4F4D51" transform="translate(88,138)"/>
  <path d="M0 0 C1.1446875 0.00644531 2.289375 0.01289062 3.46875 0.01953125 C6.5 0.1875 6.5 0.1875 9.5 1.1875 C9.5 1.8475 9.5 2.5075 9.5 3.1875 C8.84 3.1875 8.18 3.1875 7.5 3.1875 C7.561875 4.239375 7.62375 5.29125 7.6875 6.375 C7.4922214 10.34566493 6.79674932 12.02946969 4.5 15.1875 C2.125 14.9375 2.125 14.9375 -0.5 14.1875 C-3.16181082 10.8919247 -2.65640774 7.25410119 -2.5 3.1875 C-4.48 3.8475 -6.46 4.5075 -8.5 5.1875 C-8.83 4.1975 -9.16 3.2075 -9.5 2.1875 C-5.91527958 -0.20231361 -4.24646235 -0.05260257 0 0 Z " fill="#B66079" transform="translate(98.5,69.8125)"/>
  <path d="M0 0 C3 2 3 2 4 5 C4.47469459 12.05061082 4.47469459 12.05061082 3 15 C0 14 0 14 -1.6875 11.25 C-2.93950669 8.14979295 -3.28970125 6.28328088 -3 3 C-4.32 3.33 -5.64 3.66 -7 4 C-6.690625 4.7425 -6.38125 5.485 -6.0625 6.25 C-5.1905075 8.50692176 -4.52332993 10.6450153 -4 13 C-5.32 13.33 -6.64 13.66 -8 14 C-8.66666667 12.66666667 -9.33333333 11.33333333 -10 10 C-10.37125 9.34 -10.7425 8.68 -11.125 8 C-12 6 -12 6 -12 2 C-11.38125 1.855625 -10.7625 1.71125 -10.125 1.5625 C-3.42909761 -0.20994475 -3.42909761 -0.20994475 0 0 Z " fill="#776058" transform="translate(68,78)"/>
  <path d="M0 0 C3.8630447 3.09043576 6.07765457 5.25574492 9 9 C10.65 10.65 12.3 12.3 14 14 C9.38 14.66 4.76 15.32 0 16 C0 10.72 0 5.44 0 0 Z " fill="#FBE8E5" transform="translate(87,47)"/>
  <path d="M0 0 C0.66 0 1.32 0 2 0 C-0.16090272 4.52812278 -2.83712551 8.74462844 -5.44140625 13.02734375 C-8.19956803 18.28789792 -8.87417611 24.13196726 -8 30 C-6.08452386 34.46658113 -3.7569064 36.61490727 0.5625 38.8125 C1.696875 39.204375 2.83125 39.59625 4 40 C5.34013497 40.65288627 6.67741528 41.31225595 8 42 C3.14896201 42.60637975 0.72930033 42.18289173 -3.25 39.25 C-6.63707013 36.56744046 -9.49432708 33.99554145 -10.58203125 29.703125 C-11.66927119 18.13046938 -7.88257797 11.15949089 -1.43359375 1.703125 C-0.72396484 0.86007813 -0.72396484 0.86007813 0 0 Z " fill="#755A4D" transform="translate(43,48)"/>
  <path d="M0 0 C2.70238949 4.05358424 2.22937614 6.18310104 2 11 C1.67 11.66 1.34 12.32 1 13 C-2 12 -2 12 -3.6875 9.25 C-4.93950669 6.14979295 -5.28970125 4.28328088 -5 1 C-3.35 0.67 -1.7 0.34 0 0 Z " fill="#B96880" transform="translate(70,80)"/>
  <path d="M0 0 C3.875 1.75 3.875 1.75 5 4 C5.14716542 5.80843663 5.2210887 7.62331566 5.25 9.4375 C5.27578125 10.40558594 5.3015625 11.37367187 5.328125 12.37109375 C5 15 5 15 3.484375 16.84765625 C2.99453125 17.22792969 2.5046875 17.60820313 2 18 C1.66191314 15.93827387 1.32972639 13.8755797 1 11.8125 C0.814375 10.66394531 0.62875 9.51539062 0.4375 8.33203125 C0.06510523 5.49584607 -0.08596021 2.85280436 0 0 Z " fill="#F8E3DD" transform="translate(122,65)"/>
  <path d="M0 0 C1.1446875 0.00644531 2.289375 0.01289062 3.46875 0.01953125 C6.5 0.1875 6.5 0.1875 9.5 1.1875 C9.5 1.8475 9.5 2.5075 9.5 3.1875 C8.45199219 3.24808594 7.40398437 3.30867188 6.32421875 3.37109375 C4.94529952 3.45551738 3.56639395 3.54016447 2.1875 3.625 C1.15206055 3.68397461 1.15206055 3.68397461 0.09570312 3.74414062 C-2.97161535 3.93677415 -5.56968152 4.21072717 -8.5 5.1875 C-8.83 4.1975 -9.16 3.2075 -9.5 2.1875 C-5.91527958 -0.20231361 -4.24646235 -0.05260257 0 0 Z " fill="#695959" transform="translate(98.5,69.8125)"/>
  <path d="M0 0 C1.32 0 2.64 0 4 0 C4.99 3.63 5.98 7.26 7 11 C6.34 11 5.68 11 5 11 C4.67 11.99 4.34 12.98 4 14 C3.54625 12.783125 3.0925 11.56625 2.625 10.3125 C1.45547059 7.1919073 0.25437562 4.08769384 -1 1 C-0.67 0.67 -0.34 0.34 0 0 Z " fill="#EED8D6" transform="translate(61,81)"/>
  <path d="M0 0 C2.00293347 3.00440021 2.49271626 4.70993945 3.125 8.1875 C3.29257812 9.08855469 3.46015625 9.98960938 3.6328125 10.91796875 C3.75398438 11.60503906 3.87515625 12.29210937 4 13 C3.01 13.66 2.02 14.32 1 15 C-1 13 -1 13 -1.23046875 10.46875 C-1.21628906 9.4890625 -1.20210937 8.509375 -1.1875 7.5 C-1.18105469 6.5203125 -1.17460938 5.540625 -1.16796875 4.53125 C-1 2 -1 2 0 0 Z " fill="#F9E7E3" transform="translate(57,66)"/>
  <path d="M0 0 C0.66 0 1.32 0 2 0 C-0.16090272 4.52812278 -2.83712551 8.74462844 -5.44140625 13.02734375 C-6.88748342 15.7854007 -7.58823545 17.93714865 -8 21 C-8.66 21 -9.32 21 -10 21 C-9.64798449 12.90364317 -5.13658023 6.10495192 0 0 Z " fill="#8A6B5F" transform="translate(43,48)"/>
  <path d="M0 0 C0.9075 0.185625 1.815 0.37125 2.75 0.5625 C5.68314324 0.95734621 7.2644657 0.94691572 10 0 C8.125 4.75 8.125 4.75 7 7 C5.35 6.67 3.7 6.34 2 6 C1.34 4.02 0.68 2.04 0 0 Z " fill="#D97E9E" transform="translate(96,78)"/>
  <path d="M0 0 C2.00792848 3.01189272 2.88398716 5.58221068 4 9 C4.63815344 10.34721283 5.29325371 11.68747118 6 13 C4.33388095 13.042721 2.66617115 13.04063832 1 13 C0 12 0 12 -0.09765625 9.27734375 C-0.08605469 8.17519531 -0.07445312 7.07304688 -0.0625 5.9375 C-0.05347656 4.83277344 -0.04445312 3.72804688 -0.03515625 2.58984375 C-0.02355469 1.73519531 -0.01195312 0.88054687 0 0 Z " fill="#EDD8D1" transform="translate(63,65)"/>
  <path d="M0 0 C0.33 0 0.66 0 1 0 C1.10251672 5.12583611 1.03590199 9.94997778 0 15 C-0.33 15 -0.66 15 -1 15 C-1.144375 14.2575 -1.28875 13.515 -1.4375 12.75 C-1.90050901 10.09703494 -1.90050901 10.09703494 -2.75 8.0625 C-3.140526 4.84066053 -1.55863615 2.74319962 0 0 Z " fill="#755C65" transform="translate(88,138)"/>
  <path d="M0 0 C1.125 3.75 1.125 3.75 0 6 C1.98 6 3.96 6 6 6 C6 6.33 6 6.66 6 7 C2.7 7 -0.6 7 -4 7 C-4 5.68 -4 4.36 -4 3 C-2 1.25 -2 1.25 0 0 Z " fill="#E0C6C6" transform="translate(92,111)"/>
  <path d="M0 0 C0.66 0.99 1.32 1.98 2 3 C-1.3 3 -4.6 3 -8 3 C-8 2.34 -8 1.68 -8 1 C-5.21136993 -0.39431504 -3.07921132 -0.25660094 0 0 Z " fill="#61504D" transform="translate(68,78)"/>
  <path d="M0 0 C1.98 0.66 3.96 1.32 6 2 C5.67 3.65 5.34 5.3 5 7 C4.01 6.67 3.02 6.34 2 6 C0.8125 2.9375 0.8125 2.9375 0 0 Z " fill="#D77A9D" transform="translate(66,86)"/>
  <path d="M0 0 C2 3 2 3 1.6875 5.375 C1.460625 6.24125 1.23375 7.1075 1 8 C0.814375 8.928125 0.62875 9.85625 0.4375 10.8125 C0.293125 11.534375 0.14875 12.25625 0 13 C-0.33 13 -0.66 13 -1 13 C-1.02696365 11.20841511 -1.04637917 9.41671527 -1.0625 7.625 C-1.07410156 6.62726563 -1.08570313 5.62953125 -1.09765625 4.6015625 C-1 2 -1 2 0 0 Z " fill="#EDD7D0" transform="translate(57,66)"/>
  <path d="M0 0 C0.99 0.99 1.98 1.98 3 3 C-1.62 3.66 -6.24 4.32 -11 5 C-11 4.34 -11 3.68 -11 3 C-7.37 2.01 -3.74 1.02 0 0 Z " fill="#E8CCC5" transform="translate(98,58)"/>
  <path d="M0 0 C0.33 0.66 0.66 1.32 1 2 C-0.61594832 4.04119788 -2.2856382 6.04072937 -4 8 C-4.66 8 -5.32 8 -6 8 C-6.33 8.66 -6.66 9.32 -7 10 C-7 7 -7 7 -4.625 4.4375 C-3.75875 3.633125 -2.8925 2.82875 -2 2 C-1.34 1.34 -0.68 0.68 0 0 Z " fill="#AE8A7C" transform="translate(58,29)"/>
</svg>